<svg width="39" height="39" viewBox="0 0 39 39" fill="none" xmlns="http://www.w3.org/2000/svg">
<g clip-path="url(#clip0_529_9)">
<path d="M29.1525 29.1525C26.3747 31.2699 22.9923 32.4429 19.5 32.5C8.125 32.5 1.625 19.5 1.625 19.5C3.64632 15.7331 6.44984 12.442 9.8475 9.84748M16.0875 6.88998C17.206 6.62816 18.3512 6.49728 19.5 6.49998C30.875 6.49998 37.375 19.5 37.375 19.5C36.3886 21.3453 35.2122 23.0827 33.865 24.6837M22.945 22.945C22.4987 23.4239 21.9605 23.8081 21.3625 24.0746C20.7645 24.341 20.119 24.4843 19.4644 24.4958C18.8098 24.5074 18.1596 24.387 17.5526 24.1418C16.9456 23.8966 16.3942 23.5317 15.9313 23.0687C15.4683 22.6058 15.1034 22.0544 14.8582 21.4474C14.613 20.8403 14.4926 20.1902 14.5042 19.5356C14.5157 18.881 14.659 18.2355 14.9254 17.6375C15.1919 17.0395 15.576 16.5013 16.055 16.055" stroke="white" stroke-width="2" stroke-linecap="round" stroke-linejoin="round"/>
<path d="M1.625 1.625L37.375 37.375" stroke="white" stroke-width="2" stroke-linecap="round" stroke-linejoin="round"/>
</g>
<defs>
<clipPath id="clip0_529_9">
<rect width="39" height="39" fill="white"/>
</clipPath>
</defs>
</svg>
